<?xml version="1.0" encoding="iso-8859-1"?>
<!-- Generator: Adobe Illustrator 19.0.0, SVG Export Plug-In . SVG Version: 6.00 Build 0)  -->
<svg version="1.1" id="Layer_1" xmlns="http://www.w3.org/2000/svg" xmlns:xlink="http://www.w3.org/1999/xlink" x="0px" y="0px"
	 viewBox="0 0 512 512" style="enable-background:new 0 0 512 512;" xml:space="preserve">
<path style="fill:#F6F1DD;" d="M444.688,512H67.312C64.93,512,63,510.069,63,507.688V4.312C63,1.931,64.931,0,67.312,0h377.376
	C447.069,0,449,1.931,449,4.312v503.376C449,510.069,447.069,512,444.688,512z"/>
<path style="fill:#F6CC65;" d="M416.654,52.784v406.668c0,0.086,0,0.172-0.011,0.248c-0.205,3.848-5.154,5.616-7.612,2.522
	c-3.806-4.786-0.528-13.614-9.596-11.232c-1.553,0.41-3.019,1.056-4.356,1.886c-3.515,2.167-6.146,5.659-7.159,9.755
	c-1.639,6.651,2.814,6.36,7.159,7.373c1.854,0.431,3.687,1.11,5.014,2.662c2.351,2.738,0.237,6.996-3.375,6.996H115.175
	c-3.407,0-5.596-3.848-3.634-6.64c4.227-6.014,14.944-0.593,12.54-10.402c-1.412-5.691-5.92-10.218-11.602-11.652
	c-9.618-2.436-4.917,7.675-10.124,12.137c-2.749,2.35-7.008,0.237-7.008-3.374v-407c0-4.225,5.51-5.982,7.849-2.479
	c3.256,4.883,0.625,13.075,9.391,10.747c5.617-1.498,10.071-5.971,11.483-11.62c2.297-9.184-7.116-5.26-11.753-9.712
	c-2.749-2.652-0.722-7.33,3.094-7.33h281.306c3.601,0,5.725,4.258,3.375,6.996c-1.326,1.552-3.159,2.221-5.014,2.652
	c-4.334,1.024-8.787,0.733-7.159,7.341c1.003,4.118,3.634,7.621,7.159,9.787c1.305,0.819,2.739,1.455,4.259,1.865
	c8.798,2.393,6.264-5.767,9.467-10.661c2.264-3.471,7.634-1.822,7.839,2.231C416.654,52.623,416.654,52.698,416.654,52.784z"/>
<path style="fill:#E89D41;" d="M416.643,52.547V459.7c-0.205,3.848-5.154,5.616-7.612,2.522c-3.806-4.786-0.528-13.614-9.596-11.232
	c-1.553,0.41-3.019,1.056-4.356,1.886V59.112c1.305,0.819,2.739,1.455,4.259,1.865c8.798,2.393,6.264-5.767,9.467-10.661
	C411.069,46.845,416.438,48.494,416.643,52.547z"/>
<path style="fill:#F6F1DD;" d="M360.171,397.545H159.024c-8.704,0-15.76-7.056-15.76-15.76v-11.204c0-2.382,1.931-4.312,4.312-4.312
	h224.043c2.382,0,4.312,1.931,4.312,4.312v11.204C375.931,390.489,368.875,397.545,360.171,397.545z"/>
<path style="fill:#D6C9AD;" d="M354.367,366.269v15.519c0,8.703-7.057,15.758-15.762,15.758h21.564
	c8.705,0,15.762-7.055,15.762-15.758v-11.207c0-2.381-1.931-4.312-4.313-4.312H354.367z"/>
<path style="fill:#E36552;" d="M293.303,366.269h-67.411c-18.616,0-33.708-15.092-33.708-33.708v-73.757
	c0-2.382,1.931-4.312,4.312-4.312h126.202c2.382,0,4.312,1.931,4.312,4.312v73.757C327.011,351.177,311.919,366.269,293.303,366.269
	z"/>
<path style="fill:#C95249;" d="M305.446,254.491v78.075c0,18.614-15.094,33.703-33.713,33.703h21.564
	c18.619,0,33.713-15.089,33.713-33.703v-73.763c0-2.381-1.931-4.312-4.313-4.312L305.446,254.491L305.446,254.491z"/>
<g>
	<path style="fill:#C47438;" d="M193.736,61.964c-3.745-0.785-7.526,1.158-9.065,4.659L166.308,108.4l-18.363-41.777
		c-1.538-3.501-5.321-5.446-9.065-4.659c-3.744,0.786-6.425,4.087-6.425,7.912v83.548c0,4.465,3.621,8.084,8.087,8.084
		s8.087-3.619,8.087-8.084v-45.055l10.276,23.379c1.29,2.936,4.195,4.832,7.403,4.832s6.113-1.896,7.403-4.832l10.276-23.379v45.089
		c0,4.465,3.621,8.084,8.087,8.084s8.087-3.619,8.087-8.084V69.875C200.16,66.051,197.48,62.749,193.736,61.964z"/>
	<path style="fill:#C47438;" d="M248.706,77.959c4.466,0,8.087-3.619,8.087-8.084s-3.621-8.084-8.087-8.084h-37.034
		c-4.466,0-8.087,3.619-8.087,8.084v83.583c0,4.465,3.621,8.084,8.087,8.084h37.034c4.466,0,8.087-3.619,8.087-8.084
		s-3.621-8.084-8.087-8.084h-28.947v-27.613h28.947c4.466,0,8.087-3.619,8.087-8.084s-3.621-8.084-8.087-8.084h-28.947V77.959
		H248.706z"/>
	<path style="fill:#C47438;" d="M308.207,61.791c-4.467,0-8.087,3.619-8.087,8.084v47.171l-24.362-50.673
		c-1.635-3.4-5.405-5.222-9.085-4.38c-3.68,0.838-6.29,4.109-6.29,7.882v83.583c0,4.465,3.62,8.084,8.087,8.084
		s8.087-3.619,8.087-8.084v-48.101l24.362,50.673c1.634,3.401,5.404,5.221,9.085,4.38c3.68-0.838,6.29-4.109,6.29-7.882V69.875
		C316.294,65.411,312.674,61.791,308.207,61.791z"/>
	<path style="fill:#C47438;" d="M371.458,61.791c-4.467,0-8.087,3.619-8.087,8.084v75.498h-26.495V69.841
		c0-4.465-3.62-8.084-8.087-8.084s-8.087,3.619-8.087,8.084v83.617c0,4.465,3.62,8.084,8.087,8.084h42.668
		c4.467,0,8.087-3.619,8.087-8.084V69.875C379.545,65.411,375.925,61.791,371.458,61.791z"/>
</g>
<path style="fill:#C95249;" d="M347.099,334.107h-23.185c-7.159,0-12.984-5.824-12.984-12.984v-45.476
	c0-7.159,5.825-12.984,12.984-12.984h33.735c9.648,0,17.498,7.851,17.498,17.501v25.887
	C375.148,321.521,362.565,334.107,347.099,334.107z M327.104,317.938h19.995c6.548,0,11.875-5.333,11.875-11.887v-25.887
	c0-0.735-0.594-1.332-1.325-1.332h-30.546v39.106H327.104z"/>
<g>
</g>
<g>
</g>
<g>
</g>
<g>
</g>
<g>
</g>
<g>
</g>
<g>
</g>
<g>
</g>
<g>
</g>
<g>
</g>
<g>
</g>
<g>
</g>
<g>
</g>
<g>
</g>
<g>
</g>
</svg>
